<?xml version="1.0" encoding="utf-8"?>
<!-- Generator: Adobe Illustrator 14.0.0, SVG Export Plug-In . SVG Version: 6.00 Build 43363)  -->
<!DOCTYPE svg PUBLIC "-//W3C//DTD SVG 1.1//EN" "http://www.w3.org/Graphics/SVG/1.1/DTD/svg11.dtd">
<svg version="1.1" id="Layer_1" xmlns="http://www.w3.org/2000/svg" xmlns:xlink="http://www.w3.org/1999/xlink" x="0px" y="0px"
	 width="72px" height="86.4px" viewBox="0 0 72 86.4" enable-background="new 0 0 72 86.4" xml:space="preserve">
<path fill-rule="evenodd" clip-rule="evenodd" fill="#BCBEC0" d="M34.932,3.567c0.722,0,1.445,0,2.167,0
	c2.266,0.831,3.995,2.197,3.87,5.419c5.307,0.875,9.954,4.003,13.314,7.586c3.136,3.344,6.058,8.281,6.503,14.397
	c0.443,6.096-0.12,11.963,0.31,17.185c0.411,5.01,1.67,9.9,4.335,13.159c1.702,2.081,4.536,3.076,5.108,4.954
	c0.916,3.007-1.085,5.89-3.097,6.503c-3.006,0.916-7.207,0.154-10.682,0.154c-3.773,0-7.044,0-10.683,0
	c-0.533,5.609-3.562,8.721-8.515,9.908c-1.032,0-2.064,0-3.097,0c-4.828-1.261-8.117-4.062-8.36-9.908c-3.406,0-6.859,0-10.837,0
	c-3.515,0-7.839,0.712-10.682-0.154c-1.982-0.604-3.816-3.119-3.251-6.038c0.495-2.555,3.356-3.191,5.109-5.264
	c2.876-3.4,4.074-8.286,4.49-13.159c0.447-5.234-0.173-11.068,0.31-17.34c0.921-11.959,9.506-19.43,19.817-21.983
	C30.926,5.754,32.665,4.397,34.932,3.567z"/>
</svg>
