<?xml version="1.0" encoding="utf-8"?>
<!-- Generator: Adobe Illustrator 14.0.0, SVG Export Plug-In . SVG Version: 6.00 Build 43363)  -->
<!DOCTYPE svg PUBLIC "-//W3C//DTD SVG 1.1//EN" "http://www.w3.org/Graphics/SVG/1.1/DTD/svg11.dtd">
<svg version="1.1" id="Layer_1" xmlns="http://www.w3.org/2000/svg" xmlns:xlink="http://www.w3.org/1999/xlink" x="0px" y="0px"
	 width="100px" height="100px" viewBox="0 0 100 100" enable-background="new 0 0 100 100" xml:space="preserve">
<circle fill-rule="evenodd" clip-rule="evenodd" fill="none" stroke="#454545" stroke-width="4" cx="50" cy="50" r="46.75"/>
<g>
	<path fill="#454545" d="M25.912,49.683c-1.68-0.82-2.971-1.965-3.871-3.435c-0.9-1.473-1.351-3.098-1.351-4.878
		c0-2.722,1.026-5.063,3.077-7.023c2.05-1.961,4.676-2.941,7.878-2.941c2.621,0,4.892,0.64,6.813,1.92h5.823
		c0.861,0,1.361,0.025,1.501,0.076c0.14,0.049,0.24,0.135,0.3,0.255c0.12,0.18,0.18,0.5,0.18,0.96c0,0.521-0.05,0.881-0.151,1.08
		c-0.06,0.101-0.165,0.181-0.314,0.24c-0.151,0.061-0.655,0.091-1.516,0.091h-3.571c1.121,1.44,1.68,3.281,1.68,5.521
		c0,2.562-0.98,4.752-2.941,6.574c-1.961,1.82-4.591,2.731-7.894,2.731c-1.36,0-2.75-0.201-4.17-0.602
		c-0.881,0.761-1.476,1.427-1.787,1.997c-0.31,0.57-0.465,1.054-0.465,1.456c0,0.339,0.165,0.669,0.495,0.99
		c0.331,0.318,0.975,0.551,1.936,0.69c0.561,0.081,1.961,0.15,4.203,0.209c4.122,0.102,6.793,0.241,8.013,0.42
		c1.861,0.26,3.347,0.95,4.457,2.071c1.111,1.121,1.666,2.502,1.666,4.143c0,2.262-1.061,4.383-3.181,6.362
		c-3.123,2.921-7.194,4.383-12.216,4.383c-3.862,0-7.124-0.872-9.785-2.61c-1.5-1.001-2.25-2.041-2.25-3.123
		c0-0.48,0.11-0.961,0.33-1.439c0.339-0.74,1.04-1.772,2.101-3.092c0.14-0.182,1.16-1.261,3.062-3.242
		c-1.041-0.621-1.776-1.174-2.207-1.666c-0.431-0.489-0.646-1.046-0.646-1.666c0-0.699,0.285-1.521,0.855-2.46
		C22.535,52.733,23.852,51.404,25.912,49.683z M25.613,59.708c-0.941,1.021-1.651,1.971-2.131,2.852
		c-0.481,0.88-0.72,1.691-0.72,2.432c0,0.959,0.58,1.801,1.74,2.521c2.001,1.238,4.892,1.859,8.674,1.859
		c3.602,0,6.258-0.635,7.968-1.904c1.711-1.271,2.566-2.627,2.566-4.067c0-1.042-0.51-1.78-1.531-2.222
		c-1.04-0.439-3.101-0.699-6.182-0.78C31.494,60.278,28.034,60.049,25.613,59.708z M31.135,32.846c-1.481,0-2.721,0.59-3.722,1.771
		c-1.001,1.181-1.501,2.991-1.501,5.433c0,3.162,0.681,5.611,2.042,7.354c1.04,1.32,2.361,1.981,3.961,1.981
		c1.521,0,2.771-0.57,3.751-1.711c0.981-1.14,1.472-2.932,1.472-5.372c0-3.183-0.69-5.674-2.071-7.475
		C34.046,33.506,32.735,32.846,31.135,32.846z"/>
	<path fill="#454545" d="M67.646,27.025v14.437h13.885v3.688H67.646v14.559h-3.932V45.149H49.827v-3.688h13.888V27.025H67.646z"/>
</g>
</svg>
