<?xml version="1.0" encoding="utf-8"?>
<!-- Generator: Adobe Illustrator 14.0.0, SVG Export Plug-In . SVG Version: 6.00 Build 43363)  -->
<!DOCTYPE svg PUBLIC "-//W3C//DTD SVG 1.1//EN" "http://www.w3.org/Graphics/SVG/1.1/DTD/svg11.dtd">
<svg version="1.1" id="Layer_1" xmlns="http://www.w3.org/2000/svg" xmlns:xlink="http://www.w3.org/1999/xlink" x="0px" y="0px"
	 width="241.238px" height="99.333px" viewBox="0 0 241.238 99.333" enable-background="new 0 0 241.238 99.333"
	 xml:space="preserve">
<g>
	<path fill="#3B97D3" d="M30.482,33.782h1.551l1.769,0.557l1.521,3.506v0.621c0,0.228-0.446,0.609-1.334,1.148h-2.141l-0.404-0.374
		l-3.475,0.374c-3.392,0-5.088-0.776-5.088-2.327v-0.186c0.621-1.22,1.851-2.08,3.692-2.576
		C28.352,34.029,29.654,33.782,30.482,33.782z M27.131,36.232v0.994l0.62,0.619h1.956l0.373-0.309h0.31
		c0-0.87-0.662-1.418-1.985-1.646L27.131,36.232z"/>
	<path fill="#3B97D3" d="M46.895,33.595h0.589c0.29,0,0.476,0.372,0.558,1.117h0.248l4.313-0.901c0.6,0.29,0.93,0.59,0.993,0.901
		v1.333c0,2.999-5.202,7.725-15.605,14.179c-6.558,4.405-11.956,7.807-16.196,10.208v0.216c10.281,0,21.273,5.835,32.982,17.5
		c5.046,6.597,8.273,11.49,9.68,14.675v0.465c-7.633-9.722-13.353-15.792-17.159-18.212c-10.444-8.128-20.053-12.192-28.823-12.192
		c-2.689,0.433-5.987,1.53-9.897,3.289l-3.166,0.465H4.636l-0.403-0.465c1.138-1.843,4.107-3.467,8.905-4.873
		c4.22-0.436,7.105-1.16,8.656-2.172c11.045-6.371,19.878-12.598,26.496-18.678c0.455-0.082,0.982-1.117,1.583-3.102l-0.25-0.652
		h-0.745c-0.869,0.083-3.836,1.707-8.903,4.871h-1.18l-0.217-0.218v-0.187c0.372-0.66,1.955-2.005,4.747-4.031l0.403-1.087
		l-0.589-0.218c-1.201,0-2.388,0.435-3.568,1.305l-0.776-0.653C40.803,34.557,43.502,33.595,46.895,33.595z"/>
	<path fill="#3B97D3" d="M59.273,33.44c0.29,0.124,0.869,1.066,1.737,2.823c2.007,1.944,4.83,3.455,8.471,4.529v0.125
		c0,0.248-0.713,0.446-2.14,0.59c-3.227,0-6.621-1.417-10.178-4.25c-0.849-1.199-1.272-1.995-1.272-2.389v-0.31
		C56.925,33.812,58.053,33.44,59.273,33.44z"/>
	<path fill="#3B97D3" d="M71.871,39.397h0.341l-14.21,12.66c-5.356,5.066-8.036,9.172-8.036,12.315c0,3.538,1.427,5.306,4.281,5.306
		h0.187v0.185c0,0.477-1.148,1.046-3.444,1.708c-2.729-1.138-4.094-2.679-4.094-4.623v-1.179c0-5.628,7.581-14.015,22.741-25.163
		L71.871,39.397z M90.176,20.409c0-4.282-0.508-8.161-1.52-11.635h-0.187c-1.158,1.24-2.813,7.063-4.964,17.467
		c-1.2,3.621-2.678,5.896-4.437,6.827l-0.527,1.892c0.311,0.58,2.42,2.979,6.329,7.2c3.434,4.052,5.15,7.185,5.15,9.399v1.521
		c0,1.488-0.693,2.233-2.078,2.233l-0.341-0.341V54.63c0-5.149-4.044-10.909-12.132-17.281l-3.939,0.187
		c-1.594-0.083-2.39-0.424-2.39-1.025c0-1.179,1.768-2.264,5.306-3.256v0.496H74.6c0.228-0.249,1.148-0.59,2.762-1.024
		c1.944-1.076,3.651-6.207,5.12-15.389c1.633-7.529,4.033-11.294,7.198-11.294h0.682c1.428,0,2.452,4.509,3.072,13.527v0.155
		c0,4.2-1.158,8.656-3.475,13.373l-1.892,0.837C89.473,29.758,90.176,25.249,90.176,20.409z M72.398,35.115
		c0,0.331,0.567,0.558,1.706,0.683l0.156-1.52l-0.156-0.187h-0.34C72.853,34.609,72.398,34.95,72.398,35.115z"/>
	<path fill="#3B97D3" d="M102.678,38.9l-2.419,0.093c-5.544,0.228-9.463-0.621-11.759-2.545v-0.403
		c-0.021-0.393,0.91-0.899,2.792-1.521h0.434c2.772,1.799,8.066,2.586,15.885,2.358l-0.093,1.583L102.678,38.9z M118.129,35.89
		l0.465,0.559l0.031,0.778c-1.013,2.522-2.337,4.197-3.972,5.024l-1.333,0.031l-0.218-0.185h-0.186l1.583-3.878h-0.248l-5.895,0.06
		l-0.962,0.094l0.187-1.521L118.129,35.89z"/>
	<path fill="#3B97D3" d="M131.253,33.782h1.552l1.769,0.557l1.52,3.506v0.621c0,0.228-0.445,0.609-1.334,1.148h-2.142l-0.403-0.374
		l-3.476,0.374c-3.391,0-5.087-0.776-5.087-2.327v-0.186c0.621-1.22,1.851-2.08,3.692-2.576
		C129.123,34.029,130.426,33.782,131.253,33.782z M127.903,36.232v0.994l0.62,0.619h1.956l0.373-0.309h0.31
		c0-0.87-0.662-1.418-1.985-1.646L127.903,36.232z"/>
	<path fill="#3B97D3" d="M144.253,33.905l0.713,0.465c1.262,7.28,0.901,11.335-1.085,12.161l-2.017,2.143l0.435-2.792l-0.217,0.031
		c0.187-1.53,0.114-3.608-0.217-6.236l-0.868-3.848C142.133,34.712,143.219,34.072,144.253,33.905z"/>
	<path fill="#3B97D3" d="M153.84,33.689c0,0.123,0.011,0.237,0.031,0.34c0,1.263,2.203,3.072,6.609,5.429l0.683,0.837v0.155
		l-1.862,0.341c-3.04,0-5.574-1.571-7.601-4.715c-0.166-0.226-0.321-0.66-0.467-1.302l0.311-0.124
		c-0.58-0.641-1.292-2.244-2.141-4.809c-3.95-7.468-9.897-12.38-17.841-14.738c-1.86-0.415-3.773-0.621-5.74-0.621h-2.233
		c-4.241,0-6.36,1.085-6.36,3.259c0,2.689,2.047,4.601,6.143,5.739c3.702,0.518,5.554,1.004,5.554,1.458
		c0,0.683-1.509,1.024-4.53,1.024h-0.403c-5.833,0-9.318-1.985-10.455-5.957v-1.024c0-2.627,3.216-4.88,9.649-6.764h1.612
		c11.915,0,20.601,4.985,26.062,14.957C152.082,29.034,153.075,31.206,153.84,33.689z"/>
	<path fill="#3B97D3" d="M182.043,32.479h0.557l0.528,0.527v0.187c-1.324,3.62-2.771,5.43-4.344,5.43l-4.158,0.372
		c-2.647-0.786-3.971-1.81-3.971-3.073c-2.296,0.415-3.444,1.253-3.444,2.514c-1.139,0.621-2.286,0.931-3.445,0.931l-0.186-0.185
		v-0.901c0-1.467,2.658-2.917,7.975-4.343l2.699,1.242c0.869,1.095,1.84,1.643,2.917,1.643h0.156
		c0.268-0.061,0.817-1.085,1.644-3.07C180.15,32.903,181.174,32.479,182.043,32.479z"/>
	<path fill="#3B97D3" d="M183.563,45.974c-1.138,1.841-2.007,3.269-2.607,4.282c-1.323,2.213-2.14,3.889-2.45,5.026
		c-0.311,1.138-0.353,2.437-0.124,3.894c0.228,1.458,0.857,3.232,1.892,5.32c0.786,1.677,1.94,3.283,3.46,4.825
		c1.52,1.542,3.212,3.006,5.073,4.391c1.86,1.386,3.816,2.672,5.863,3.863c2.048,1.189,4.012,2.254,5.895,3.196
		c1.883,0.941,3.595,1.753,5.135,2.435c1.541,0.683,2.746,1.199,3.615,1.552c2.523,1.137,5.041,2.047,7.556,2.73
		c2.512,0.683,4.849,1.189,7.011,1.52c2.162,0.331,4.059,0.531,5.693,0.605c1.634,0.072,2.833,0.045,3.599-0.078
		c0.786-0.103,1.349-0.248,1.69-0.435c0.341-0.187,0.554-0.408,0.635-0.667c0.084-0.259,0.073-0.533-0.03-0.823
		c-0.104-0.289-0.197-0.611-0.279-0.961l-0.311-0.837c-0.124-0.373-0.279-0.786-0.465-1.241c-0.187-0.455-0.393-0.93-0.621-1.428
		c-0.228-0.495-0.455-1.002-0.682-1.519c-0.539-1.181-1.149-2.44-1.831-3.786l0.682-0.962c0.165-0.206,0.32-0.372,0.466-0.495
		c0.144-0.124,0.217-0.104,0.217,0.061c0,0.103,0.175,0.49,0.527,1.164c0.352,0.671,0.76,1.504,1.226,2.497
		c0.465,0.994,0.925,2.073,1.381,3.244c0.455,1.168,0.815,2.31,1.086,3.427c0.186,1.118,0.186,2.012,0,2.684
		c-0.187,0.671-0.569,1.19-1.148,1.552c-0.58,0.362-1.34,0.62-2.28,0.775c-0.942,0.155-2.043,0.243-3.305,0.263
		c-1.22,0.105-2.782-0.014-4.685-0.356c-1.903-0.34-3.883-0.774-5.941-1.303c-2.058-0.527-4.096-1.111-6.112-1.753
		c-2.016-0.639-3.75-1.219-5.197-1.736c-1.53-0.538-3.262-1.159-5.196-1.862c-1.935-0.703-4.054-1.645-6.36-2.824
		c-2.308-1.178-4.789-2.689-7.447-4.53c-2.658-1.84-5.445-4.168-8.362-6.98c-1.799-1.738-3.138-3.355-4.018-4.857
		c-0.878-1.499-1.437-2.91-1.675-4.233c-0.238-1.323-0.238-2.549,0-3.676c0.238-1.129,0.588-2.169,1.054-3.12
		c0.466-0.95,1.517-2.844,3.15-5.678c1.531-2.646,4.033-6.649,7.508-12.005l0.125,0.063c1.178-1.945,1.922-3.248,2.233-3.909
		c0.578-1.263,0.873-2.344,0.883-3.244c0.012-0.899,0.109-1.876,0.295-2.931l-0.154-2.234l-0.59-2.109
		c-0.89-3.248-3.154-5.989-6.794-8.223c-5.254-2.73-10.508-2.875-15.762-0.434l-1.582,1.334l-0.869,1.271
		c-1.427,2.089-0.113,5.388,3.94,9.897l0.093,0.249l-0.217,0.28c-0.848,0.352-1.624,0.34-2.328-0.031
		c-2.833-1.49-4.736-4.386-5.709-8.688c-0.082-0.786,0.167-1.831,0.745-3.133c1.614-2.378,5.212-3.806,10.797-4.281
		c4.964,0,9.463,1.053,13.497,3.165l0.155,0.062c4.964,2.606,7.406,6.204,7.323,10.796c0.021,0.104,0.041,0.208,0.063,0.311
		c-0.166,3.454-0.492,5.729-0.978,6.826c-0.486,1.096-1.035,2.129-1.646,3.103c-0.609,0.971-2.817,4.488-6.623,10.547
		c-0.042,0.063-0.083,0.125-0.125,0.187L183.563,45.974z"/>
	<path fill="#3B97D3" d="M198.145,33.44c0.29,0.124,0.868,1.066,1.737,2.823c2.006,1.944,4.829,3.455,8.471,4.529v0.125
		c0,0.248-0.713,0.446-2.141,0.59c-3.227,0-6.62-1.417-10.178-4.25c-0.848-1.199-1.271-1.995-1.271-2.389v-0.31
		C195.797,33.812,196.924,33.44,198.145,33.44z"/>
</g>
</svg>
