<?xml version="1.0" encoding="utf-8"?>
<!-- Generator: Adobe Illustrator 14.0.0, SVG Export Plug-In . SVG Version: 6.00 Build 43363)  -->
<!DOCTYPE svg PUBLIC "-//W3C//DTD SVG 1.1//EN" "http://www.w3.org/Graphics/SVG/1.1/DTD/svg11.dtd">
<svg version="1.1" id="Layer_1" xmlns="http://www.w3.org/2000/svg" xmlns:xlink="http://www.w3.org/1999/xlink" x="0px" y="0px"
	 width="100px" height="100px" viewBox="0 0 100 100" enable-background="new 0 0 100 100" xml:space="preserve">
<path fill-rule="evenodd" clip-rule="evenodd" fill="#454545" d="M62.531,20.835c0.855,0,1.709,0,2.563,0
	c4.234,0.476,7.2,2.218,9.513,4.614c3.646-0.665,6.589-2.031,9.398-3.531c-1.188,3.614-3.393,6.214-6.322,8.088
	c3.181-0.351,5.823-1.24,8.316-2.278c-1.969,3.044-4.479,5.547-7.349,7.69C78.819,48.915,74.205,58.207,68,65.437
	c-6.184,7.204-14.871,12.408-26.886,13.729c-2.924,0-5.848,0-8.772,0c-7.4-0.86-13.299-3.221-18.342-6.438c0-0.019,0-0.038,0-0.057
	c9.213,0.891,16.356-1.899,21.304-5.753c0.111-0.087,0.382-0.128,0.342-0.342c-7.381-0.519-11.557-4.545-13.557-10.253
	c2.043,0.351,4.763,0.319,6.494-0.285c-6.921-1.806-11.322-6.383-11.734-14.64c1.884,0.907,3.885,1.698,6.551,1.823
	c-2.446-1.788-4.855-4.562-5.867-8.146c-1.112-3.937-0.408-8.78,1.481-11.563c7.047,8.218,16.161,14.371,30.361,15.437
	c-1.101-5.154,0.558-9.592,2.791-12.475C54.495,23.466,57.928,21.372,62.531,20.835z"/>
<circle fill-rule="evenodd" clip-rule="evenodd" fill="none" stroke="#454545" stroke-width="4" cx="50" cy="50" r="46.75"/>
</svg>
